<!-- icon666.com - MILLIONS vector ICONS FREE --><svg id="Layer_3" viewBox="0 0 64 64" xmlns="http://www.w3.org/2000/svg" data-name="Layer 3"><path d="m62 11h-60a1 1 0 0 0 -1 1v50a1 1 0 0 0 1 1h60a1 1 0 0 0 1-1v-50a1 1 0 0 0 -1-1zm-5 50h-24v-44h24zm-26 0h-24v-44h24zm30 0h-2v-45a1 1 0 0 0 -1-1h-52a1 1 0 0 0 -1 1v45h-2v-48h58z"></path><path d="m26 1a1 1 0 0 0 -1 1v6a1 1 0 0 0 1 1h12a1 1 0 0 0 1-1v-6a1 1 0 0 0 -1-1zm11 6h-10v-4h10z"></path><path d="m23 35h5a1 1 0 0 0 1-1v-14a1 1 0 0 0 -1-1h-5a1 1 0 0 0 -1 1v14a1 1 0 0 0 1 1zm1-14h3v12h-3z"></path><path d="m27 43h2v-6h-2v2h-17v2h17z"></path><path d="m36 35h5a1 1 0 0 0 1-1v-14a1 1 0 0 0 -1-1h-5a1 1 0 0 0 -1 1v14a1 1 0 0 0 1 1zm1-14h3v12h-3z"></path><path d="m37 43v-2h17v-2h-17v-2h-2v6z"></path></svg>