<!-- icon666.com - MILLIONS vector ICONS FREE --><svg id="Capa_1" enable-background="new 0 0 512 512" viewBox="0 0 512 512" xmlns="http://www.w3.org/2000/svg"><path d="m248.625 75.618c-3.979 2.717-5.829 7.43-4.713 12.006 2.448 10.037 12.938 61.615-21.048 91.405-15.244 13.361-27.032 29.111-35.037 46.811-2.313 5.116-9.161 5.93-12.715 1.558-7.776-9.562-17.832-19.022-30.742-28.922-8.904-6.824-21.953.943-19.251 11.698 12.396 49.346-4.796 86.467-7.466 108.582-.496 4.112 2.436 7.848 6.548 8.344 4.11.499 7.848-2.436 8.345-6.548 2.2-18.263 18.45-57.107 9.116-105.084 8.92 7.322 16.096 14.365 21.812 21.394 10.595 13.027 31.115 10.427 38.021-4.84 7.116-15.736 17.633-29.77 31.256-41.711 16.045-14.063 25.688-33.378 28.664-57.409 1.991-16.081.47-30.786-1.194-40.412 11.001 8.694 26.603 23.715 38.094 45.699 1.919 3.672 6.453 5.091 10.12 3.173 3.672-1.919 5.092-6.45 3.173-10.121-15.293-29.261-37.157-47.362-48.828-55.548-4.209-2.952-9.897-2.983-14.155-.075z"></path><path d="m428.281 114.762-2.854-3.473c-2.805-3.411-7.955-3.682-11.098-.541l-303.581 303.582c-3.14 3.141-2.871 8.294.543 11.098l3.472 2.853c39.615 32.552 89.774 50.479 141.238 50.479 120.7 0 217.129-95.186 222.522-212.462 2.54-55.197-15.303-109.013-50.242-151.536zm-161.598 224.177c11.701 12.201 28.181 15.735 48.987 10.502 2.215-.559 4.237 1.522 3.611 3.757-6.95 24.79-21.067 47.536-40.875 65.882-18.666 5.705-31.875 6.893-58.75-2.31-10.291-3.533-20.93-8.315-30.904-14.034-5.546-10.565-6.717-24.225-3.572-41.627l10.432-10.432c5.628 7.992 13.039 14.621 22.138 14.621 2.524 0 5.179-.51 7.96-1.643 12.392-5.045 5.7-25.222 5.545-48.621l16.07-16.07c4.171 12.287 8.343 28.49 19.358 39.975zm-48.555 11.208h-.022c-2.821 0-6.727-2.255-11.702-10.26l10.552-10.552c.553 6.983 1.551 16.536 1.172 20.812zm245.411-84.539c-5.032 109.397-94.99 198.152-207.538 198.152-46.733 0-92.309-15.846-128.773-44.696l41.24-41.24c-.122 13.202 2.6 24.448 8.198 34.04.696 1.239 1.708 2.209 2.849 2.852 20.826 12.249 50.498 23.833 74.654 23.833 25.644 0 60.857-16.45 81.906-31.109 24.604-17.134 54.654-47.289 58.093-93.648 3.625-48.874-7.329-85.83-19.793-100.773-3.514-4.214-8.069-6.024-12.504-4.971-4.338 1.032-7.505 4.551-8.688 9.653-9.816 42.319-32.582 75.413-41.496 76.438-.041-.049-.09-.111-.146-.19-6.566-9.255-3.724-21.704-.541-32.91 1.132-3.985-1.182-8.132-5.166-9.264-3.982-1.13-8.132 1.181-9.264 5.166-4.594 16.178-6.963 32.017 2.738 45.689 3.649 5.142 9.229 7.408 15.308 6.205 24.076-4.745 45.183-57.096 51.608-81.413 11.297 18.851 15.166 55.864 12.985 85.263-3.002 40.475-29.774 67.176-51.706 82.449-5.747 4.002-11.572 7.528-17.311 10.611 10.703-14.813 18.684-31.196 23.534-48.496 3.728-13.302-8.307-25.723-21.713-22.352-41.009 10.313-42.386-22.819-53.041-47.574l160.094-160.094c31.012 39.173 46.784 88.159 44.473 138.379z"></path><path d="m437.02 74.981c-48.353-48.352-112.64-74.981-181.02-74.981-141.483 0-256 114.497-256 256 0 68.38 26.629 132.667 74.98 181.019 48.353 48.352 112.64 74.981 181.02 74.981 141.483 0 256-114.497 256-256 0-68.379-26.629-132.666-74.98-181.019zm-181.02 422.019c-64.373 0-124.894-25.068-170.412-70.587-45.52-45.519-70.588-106.04-70.588-170.413 0-133.193 107.789-241 241-241 64.373 0 124.894 25.068 170.412 70.587 45.52 45.52 70.588 106.041 70.588 170.413 0 133.192-107.789 241-241 241z"></path><path d="m400.709 86.57-3.473-2.852c-39.614-32.551-89.773-50.478-141.237-50.478-120.729 0-217.13 95.21-222.522 212.462-2.539 55.199 15.304 109.016 50.241 151.534l2.853 3.473c2.816 3.427 7.969 3.672 11.1.542l303.581-303.582c3.134-3.135 2.877-8.288-.543-11.099zm-307.773 298.202c-31.011-39.172-46.786-88.161-44.475-138.38 5.032-109.4 94.99-198.152 207.538-198.152 46.733 0 92.309 15.846 128.772 44.696z"></path></svg>