<!-- icon666.com - MILLIONS vector ICONS FREE --><svg id="Layer_1" viewBox="0 0 1000 1000" xmlns="http://www.w3.org/2000/svg" data-name="Layer 1"><path d="m754.68 362.77a16 16 0 0 1 -6.24-1.27 120.64 120.64 0 0 1 1-222.52 16 16 0 1 1 12.22 29.57 88.64 88.64 0 0 0 -.72 163.45 16 16 0 0 1 -6.26 30.73z"></path><path d="m834.18 363.67a16 16 0 0 1 -5.92-30.87 88.63 88.63 0 0 0 1.19-164.21 16 16 0 0 1 12.26-29.59 120.62 120.62 0 0 1 -1.62 223.5 16 16 0 0 1 -5.91 1.17z"></path><path d="m818.36 259.14h-45.64a33.19 33.19 0 0 1 -33.17-33.2v-72.16a16 16 0 0 1 16-16 16 16 0 0 1 16 16v72.15a1.11 1.11 0 0 0 .35.84 1.12 1.12 0 0 0 .84.35h45.64a1.21 1.21 0 0 0 .84-.34 1.15 1.15 0 0 0 .34-.84v-72.16a16 16 0 0 1 16-16 16 16 0 0 1 16 16v72.15a33.17 33.17 0 0 1 -33.18 33.17z"></path><path d="m754.58 651.55a16 16 0 0 1 -16-16l.11-288.78a16 16 0 0 1 16-16 16 16 0 0 1 16 16l-.11 288.79a16 16 0 0 1 -16 15.99z"></path><path d="m834.07 650.73a16 16 0 0 1 -16-16l.11-287.07a16 16 0 0 1 16-16 16 16 0 0 1 16 16l-.11 287.07a16 16 0 0 1 -16 16z"></path><path d="m755.23 844.55a16 16 0 0 1 -6.12-1.22 120.63 120.63 0 0 1 -.8-222.51 16 16 0 0 1 12.48 29.46 88.63 88.63 0 0 0 .58 163.49 16 16 0 0 1 -6.14 30.78z"></path><path d="m835.26 844.59a16 16 0 0 1 -6.12-30.79 88.63 88.63 0 0 0 -1-164.21 16 16 0 1 1 11.86-29.72 120.64 120.64 0 0 1 1.4 223.51 16.11 16.11 0 0 1 -6.14 1.21z"></path><path d="m835.25 844.59a16 16 0 0 1 -16-16v-72.16a1.17 1.17 0 0 0 -1.19-1.18h-45.64a1.19 1.19 0 0 0 -.84.34 1.15 1.15 0 0 0 -.34.84v72.16a16 16 0 0 1 -16 16 16 16 0 0 1 -16-16v-72.15a33.15 33.15 0 0 1 33.18-33.17h45.64a33.22 33.22 0 0 1 33.17 33.2v72.16a16 16 0 0 1 -15.98 15.96z"></path><path d="m415.68 537.06h-119.53a30.27 30.27 0 0 1 -30.23-30.24v-120.93a30.26 30.26 0 0 1 30.23-30.23h119.53a30.27 30.27 0 0 1 30.24 30.23v120.93a30.28 30.28 0 0 1 -30.24 30.24zm-117.76-32h116v-117.4h-116z"></path><path d="m281.92 504.25h-92.15a16 16 0 0 1 -16-16v-83.78a16 16 0 0 1 16-16h92.15a16 16 0 1 1 0 32h-76.15v51.78h76.15a16 16 0 1 1 0 32z"></path><path d="m189.77 558.57h-89.77a16 16 0 0 1 -16-16v-192.42a16 16 0 0 1 16-16h89.77a16 16 0 0 1 16 16v192.42a16 16 0 0 1 -16 16zm-73.77-32h57.77v-160.42h-57.77z"></path><path d="m584.1 603.05a16 16 0 0 1 -16-16v-84.25a82.44 82.44 0 0 0 -82.45-82.24h-55.73a16 16 0 0 1 0-32h55.73c63.11 0 114.45 51.25 114.45 114.24v84.25a16 16 0 0 1 -16 16z"></path><path d="m513.69 603.05a16 16 0 0 1 -16-16v-61.33a21.49 21.49 0 0 0 -21.55-21.38h-46.22a16 16 0 0 1 0-32h46.22a53.53 53.53 0 0 1 53.55 53.38v61.33a16 16 0 0 1 -16 16z"></path><path d="m406.38 387.66h-100.93a31 31 0 0 1 -30.94-30.94v-23.08a31 31 0 0 1 30.94-30.94h100.93a31 31 0 0 1 30.95 30.94v23.08a31 31 0 0 1 -30.95 30.94zm-99.87-32h98.82v-21h-98.82z"></path><path d="m469.83 232h-68a16 16 0 0 1 0-32h68a5.51 5.51 0 1 0 0-11h-68a16 16 0 1 1 0-32h68a37.51 37.51 0 1 1 0 75z"></path><path d="m310 232h-68a37.51 37.51 0 1 1 0-75h68a16 16 0 0 1 0 32h-68a5.51 5.51 0 1 0 0 11h68a16 16 0 0 1 0 32z"></path><path d="m316.07 334.7a16 16 0 0 1 -15.7-19.2l16.13-79a16 16 0 1 1 31.36 6.4l-16.13 79a16 16 0 0 1 -15.66 12.8z"></path><path d="m395.77 334.7a16 16 0 0 1 -15.66-12.81l-16.13-79a16 16 0 1 1 31.35-6.4l16.13 79a16 16 0 0 1 -15.69 19.2z"></path><path d="m355.92 261.2a66.68 66.68 0 1 1 66.67-66.68 66.75 66.75 0 0 1 -66.67 66.68zm0-101.35a34.68 34.68 0 1 0 34.67 34.67 34.71 34.71 0 0 0 -34.67-34.67z"></path><path d="m599.51 660.81h-101.94a16 16 0 0 1 -16-16v-57.76a16 16 0 0 1 16-16h101.94a16 16 0 0 1 16 16v57.76a16 16 0 0 1 -16 16zm-85.94-32h69.94v-25.76h-69.94z"></path><path d="m548.54 872.15a68.43 68.43 0 0 1 -68.35-68.35c0-15.2 9.33-37.81 28.53-69.13 13.3-21.68 26.4-39.47 26.95-40.22a16 16 0 0 1 25.75 0c.55.75 13.64 18.54 26.94 40.22 19.2 31.33 28.54 53.93 28.54 69.13a68.43 68.43 0 0 1 -68.36 68.35zm0-140.38c-19.21 28.63-36.35 60.09-36.35 72a36.36 36.36 0 0 0 72.71 0c0-11.91-17.15-43.37-36.36-72z"></path></svg>