<?xml version="1.0" standalone="no"?>
<!DOCTYPE svg PUBLIC "-//W3C//DTD SVG 20010904//EN"
 "http://www.w3.org/TR/2001/REC-SVG-20010904/DTD/svg10.dtd">
<svg version="1.0" xmlns="http://www.w3.org/2000/svg"
 width="627.000000pt" height="627.000000pt" viewBox="0 0 627.000000 627.000000"
 preserveAspectRatio="xMidYMid meet">
<metadata>
Created by potrace 1.14, written by Peter Selinger 2001-2017
</metadata>
<g transform="translate(0.000000,627.000000) scale(0.100000,-0.100000)"
fill="#000000" stroke="none">
<path d="M3096 5989 c-936 -63 -1789 -588 -2281 -1404 -135 -223 -216 -417
-320 -761 -2 -7 -38 -35 -79 -64 -42 -29 -73 -57 -69 -63 3 -6 1 -7 -6 -3 -12
8 -141 -119 -141 -138 0 -6 6 -3 12 6 31 39 176 55 258 28 65 -21 150 -72 190
-116 l35 -37 -33 24 c-112 80 -161 99 -267 99 -155 0 -266 -100 -293 -266 -6
-32 -10 -122 -9 -199 2 -137 3 -142 35 -208 20 -40 38 -65 44 -61 7 5 8 2 3
-5 -17 -29 104 -125 203 -161 46 -17 63 -28 66 -44 39 -197 88 -377 143 -526
49 -131 178 -395 254 -515 484 -771 1279 -1265 2178 -1355 133 -13 429 -13
562 0 1170 117 2152 924 2492 2050 125 411 153 883 81 1320 -173 1041 -938
1929 -1944 2258 -362 119 -742 167 -1114 141z m619 -138 c869 -138 1599 -649
2024 -1415 323 -584 420 -1280 272 -1954 -23 -106 -73 -258 -138 -416 -247
-610 -703 -1108 -1299 -1418 -122 -63 -266 -128 -285 -128 -5 0 -9 203 -9 450
l0 450 39 0 c45 0 51 9 51 83 -1 40 -3 48 -11 34 -7 -12 -23 -17 -55 -17 -39
0 -46 3 -54 26 -13 33 -13 95 0 128 8 22 16 26 53 26 24 0 49 -6 56 -13 11
-10 12 -7 7 16 l-6 27 245 0 c211 0 245 -2 245 -15 0 -8 5 -15 11 -15 7 0 10
-20 7 -54 -1 -30 0 -52 4 -50 3 2 9 -2 12 -8 3 -7 4 -2 1 12 -4 22 -3 22 10
-5 8 -16 14 -24 15 -17 0 16 30 48 30 33 0 -5 -4 -13 -10 -16 -6 -3 -10 -11
-10 -18 0 -8 3 -8 11 0 6 6 18 9 25 6 27 -10 42 15 36 63 -4 37 -1 49 12 56 9
5 14 13 11 19 -4 5 25 9 69 9 46 0 76 4 76 10 0 6 -34 32 -75 59 -65 41 -83
48 -133 50 -84 3 -100 6 -177 35 -102 37 -535 187 -568 197 -16 5 -25 4 -22
-2 4 -5 2 -9 -4 -9 -5 0 -16 -7 -25 -15 -8 -8 -17 -11 -21 -6 -3 5 4 12 15 16
21 7 26 20 11 30 -6 3 -14 -1 -18 -10 -5 -8 -49 -47 -99 -87 -263 -212 -285
-231 -279 -245 3 -8 5 -19 5 -24 0 -4 12 -4 28 2 25 10 321 11 350 1 9 -3 12
-139 12 -633 l0 -628 -62 -19 -63 -18 -3 468 -2 468 -254 0 -254 0 -1 -507 c0
-280 -1 -512 -1 -517 0 -5 -99 -7 -242 -3 -278 7 -471 33 -697 93 -235 62
-525 187 -723 310 -98 62 -91 37 -62 209 23 142 40 190 80 229 20 20 45 38 55
41 11 4 19 11 19 16 0 19 37 8 47 -13 16 -35 103 -139 148 -179 50 -43 111
-84 150 -100 17 -6 44 -18 60 -25 68 -29 176 -46 272 -42 l96 3 -7 -195 -7
-196 47 -22 c25 -13 48 -22 49 -20 2 2 7 96 11 209 l7 206 50 2 c33 0 54 6 61
16 9 13 17 14 39 6 60 -23 142 -4 188 43 30 30 30 33 24 96 -8 80 -23 114 -53
118 -13 2 -58 -16 -108 -44 -67 -38 -87 -54 -91 -75 -5 -26 -8 -27 -87 -32
-69 -4 -83 -2 -96 13 -8 10 -26 21 -40 25 -57 16 -169 71 -232 112 -62 41
-218 187 -218 204 0 17 -63 79 -79 79 -9 0 -41 -16 -71 -35 -30 -18 -56 -33
-57 -31 -2 1 2 38 7 82 6 43 14 100 17 127 l6 47 -44 -25 c-53 -30 -112 -32
-155 -6 -49 30 -155 220 -259 464 -30 69 -41 87 -54 82 -9 -4 -30 -9 -48 -12
-30 -5 -31 -6 -21 -37 6 -17 14 -35 18 -41 11 -14 66 -217 81 -300 21 -109 18
-403 -4 -491 -19 -72 -20 -224 -3 -303 l8 -33 -30 21 c-112 80 -328 297 -458
461 -170 214 -336 515 -429 774 -51 142 -129 441 -120 456 3 6 17 10 31 10 31
0 30 10 -5 62 -62 92 -80 231 -42 313 37 78 115 141 211 169 54 16 199 21 232
8 10 -4 -17 -7 -60 -7 -97 -1 -172 -23 -238 -72 -51 -37 -68 -60 -107 -137
-42 -85 -5 -243 77 -334 92 -101 301 -122 418 -41 14 11 30 19 35 19 5 0 37
-29 73 -65 35 -35 67 -62 72 -59 4 3 6 -1 3 -8 -3 -7 5 -24 18 -39 13 -14 43
-53 66 -87 24 -34 44 -62 45 -62 1 0 2 10 3 22 1 12 12 30 24 39 l22 17 -21
27 c-33 41 -27 80 19 131 19 20 19 22 -2 100 -18 69 -61 162 -124 270 -27 45
-15 64 38 64 104 0 214 -71 237 -155 14 -51 8 -122 -15 -168 -8 -17 -14 -32
-12 -33 2 -2 25 3 52 11 95 29 212 13 229 -30 9 -25 7 -53 -6 -74 -10 -17 -7
-24 20 -49 18 -17 32 -37 32 -46 0 -28 -28 -85 -62 -129 -47 -60 -48 -61 -112
-97 -67 -38 -71 -61 -17 -97 115 -78 261 -51 358 65 27 31 54 63 61 71 45 48
62 158 62 411 l0 148 -42 5 c-24 4 -74 9 -113 12 -187 17 -339 56 -428 109
-53 31 -91 67 -124 117 -25 38 -26 44 -20 132 9 125 40 243 103 383 3 7 -22 9
-81 6 -74 -4 -95 -1 -158 22 -190 69 -302 253 -284 466 l6 69 -32 -6 c-98 -18
-293 -105 -280 -126 4 -6 1 -7 -6 -3 -7 5 -21 0 -32 -10 -32 -29 -33 -8 -4 73
349 966 1225 1674 2235 1807 180 24 182 24 430 21 175 -3 268 -9 365 -24z
m686 -3852 c112 -38 253 -87 313 -107 l109 -37 -204 -5 -204 -5 -62 -42 c-68
-47 -87 -52 -98 -25 -78 199 -101 267 -86 257 5 -2 15 3 22 12 12 14 12 16 0
8 -10 -5 -12 -4 -7 3 4 7 9 12 10 12 2 0 95 -32 207 -71z m-260 -59 c-2 -52
-6 -112 -10 -132 l-6 -38 -50 40 c-45 36 -56 39 -118 42 l-69 3 114 92 c62 51
120 91 128 90 12 -2 14 -19 11 -97z m64 -93 c14 -37 25 -72 25 -77 0 -6 -13
-10 -30 -10 l-30 0 0 82 c0 45 2 79 5 77 2 -3 16 -35 30 -72z m-293 -38 c15
-8 19 -8 14 0 -5 7 9 11 43 11 49 0 51 -1 51 -28 0 -27 -1 -28 -66 -30 -47 -3
-69 0 -75 10 -7 10 -9 10 -9 1 0 -8 -13 -13 -31 -13 -36 0 -31 13 15 41 37 22
32 22 58 8z m648 -19 c0 -36 0 -36 -50 -10 -45 23 -55 19 -12 -4 27 -15 27
-15 -25 -16 -51 0 -53 1 -53 26 0 21 4 25 20 21 11 -3 18 -1 14 4 -3 5 20 9
50 9 56 0 56 0 56 -30z m71 0 l54 -30 -57 0 c-58 0 -58 0 -58 30 0 17 2 30 3
30 2 0 28 -13 58 -30z m79 0 c0 -16 -2 -30 -3 -30 -2 0 -28 13 -58 30 l-54 30
58 0 c57 0 57 0 57 -30z m150 0 c0 -16 -3 -30 -6 -30 -3 0 -26 12 -50 26 -25
15 -47 25 -49 22 -2 -2 11 -12 30 -23 48 -25 44 -37 -12 -33 -43 3 -48 6 -51
30 -4 31 7 35 86 37 51 1 52 1 52 -29z m141 3 c2 -24 2 -25 6 -5 2 12 7 22 10
22 11 0 93 -51 93 -57 0 -16 -122 7 -166 31 -27 15 -41 21 -30 14 10 -7 28
-21 40 -31 21 -17 20 -17 -29 -15 -46 3 -50 5 -53 30 -4 30 7 35 81 37 45 1
47 0 48 -26z m-926 -8 l30 -25 -37 0 c-34 0 -38 3 -38 25 0 31 7 31 45 0z
m332 -22 c-3 -2 -20 -3 -39 -1 l-33 3 35 22 c35 22 35 22 38 2 2 -11 1 -23 -1
-26z m571 -95 c-3 -32 -5 -33 -48 -33 -43 0 -45 1 -48 33 l-3 32 51 0 51 0 -3
-32z m12 -63 c0 -2 -6 -5 -13 -8 -8 -3 -14 1 -14 8 0 7 6 11 14 8 7 -3 13 -6
13 -8z m-2757 -247 c114 -159 270 -275 447 -333 30 -10 49 -20 42 -23 -16 -5
-155 40 -223 72 -29 15 -56 26 -59 26 -3 0 -16 -18 -29 -40 l-22 -39 38 -19
c21 -11 85 -34 143 -52 145 -44 145 -45 55 -48 -101 -4 -219 20 -310 62 -125
59 -277 194 -244 218 11 8 10 9 -4 4 -13 -4 -25 7 -47 42 -16 26 -30 54 -30
63 0 11 36 37 98 73 53 30 98 55 99 56 1 0 21 -28 46 -62z m1981 27 c-14 -19
-28 -35 -30 -35 -2 0 -4 16 -4 35 0 32 2 35 31 35 l30 0 -27 -35z m42 -41 c-5
-13 -46 -21 -46 -9 0 3 10 20 23 36 21 29 22 30 25 9 2 -12 1 -28 -2 -36z
m-25 -62 c-5 -9 -19 -26 -30 -36 -21 -19 -21 -19 -21 17 0 34 2 37 30 37 26 0
29 -3 21 -18z m29 -42 c0 -38 -2 -40 -30 -40 -16 0 -30 3 -30 6 0 6 52 72 58
73 1 1 2 -17 2 -39z m-52 -100 c-12 -16 -23 -30 -25 -30 -2 0 -3 14 -3 30 0
25 4 30 25 30 l26 0 -23 -30z m52 -15 c0 -32 -2 -35 -31 -35 l-30 0 27 35 c14
19 28 35 30 35 2 0 4 -16 4 -35z m-1093 -73 c9 -55 9 -71 -3 -89 -19 -30 -63
-52 -119 -60 -53 -7 -61 8 -14 27 27 12 30 17 25 44 -9 44 -19 49 -59 30 -41
-20 -52 -15 -44 18 8 28 176 122 192 107 6 -5 15 -40 22 -77z m1073 2 c0 -4
-13 -22 -30 -41 l-30 -34 0 41 c0 38 2 40 30 40 17 0 30 -3 30 -6z m20 -64 c0
-38 -2 -40 -30 -40 -16 0 -30 3 -30 7 0 8 49 73 56 73 2 0 4 -18 4 -40z
m-1340 -55 l0 -55 -54 0 c-59 0 -62 3 -65 64 -2 41 5 46 65 46 l54 0 0 -55z
m1298 -44 c-29 -38 -38 -38 -38 -1 0 27 3 30 31 30 l31 0 -24 -29z m39 -48
c-3 -2 -15 -3 -27 -1 l-22 3 24 30 23 30 3 -29 c2 -15 1 -30 -1 -33z m-17 -40
c-1 -5 -14 -24 -30 -43 l-30 -34 0 42 c0 40 1 42 30 42 17 0 30 -3 30 -7z m20
-58 c0 -31 -3 -35 -25 -35 -14 0 -25 4 -25 9 0 9 39 61 46 61 2 0 4 -16 4 -35z
m-41 -92 c-13 -16 -27 -32 -31 -37 -5 -6 -8 7 -8 27 0 35 2 37 32 37 l31 0
-24 -27z m38 -60 c-3 -2 -17 -3 -31 -1 l-26 3 28 35 27 35 3 -34 c2 -18 1 -35
-1 -38z m-27 -40 c0 -10 -32 -43 -42 -43 -4 0 -8 11 -8 25 0 20 5 25 25 25 14
0 25 -3 25 -7z m30 -28 c0 -8 -7 -15 -16 -15 -14 0 -14 3 -4 15 7 8 14 15 16
15 2 0 4 -7 4 -15z"/>
<path d="M2353 4985 c-63 -17 -127 -49 -208 -104 -49 -34 -68 -41 -108 -41
-26 0 -61 -7 -77 -15 -34 -17 -70 -73 -70 -107 0 -14 -11 -38 -25 -54 -40 -46
-75 -126 -85 -195 -13 -85 -12 -267 1 -414 10 -120 14 -138 27 -119 4 6 30 22
57 35 28 14 75 39 105 56 30 16 93 47 140 67 47 21 114 50 150 66 140 61 431
146 584 170 38 6 72 13 75 14 3 2 69 12 146 21 176 21 173 20 149 47 -23 26
-85 54 -139 63 -39 6 -41 8 -69 78 -68 166 -161 277 -233 277 -26 0 -41 8 -66
37 -32 36 -116 83 -150 83 -10 0 -30 9 -46 21 -37 27 -94 32 -158 14z m136
-19 c37 -20 183 -243 216 -330 14 -36 28 -90 31 -120 l7 -54 -49 -7 c-88 -12
-221 -44 -289 -69 l-66 -24 -25 38 c-14 21 -28 56 -31 78 -4 33 -1 44 25 73
16 19 37 49 47 68 39 76 -6 180 -102 236 -29 17 -52 33 -53 37 0 10 94 58 145
74 54 17 110 17 144 0z m148 -66 c28 -16 61 -44 74 -61 21 -30 22 -34 8 -72
-8 -22 -18 -42 -24 -43 -5 -1 -40 44 -77 102 -75 115 -72 126 19 74z m-399
-50 c52 -38 100 -102 108 -146 7 -41 -6 -76 -52 -141 -19 -27 -34 -58 -34 -71
0 -27 25 -78 52 -109 l20 -22 -53 -27 c-75 -37 -188 -105 -195 -116 -3 -5 26
7 65 26 201 102 402 157 690 191 184 22 262 20 314 -7 l42 -22 -55 -8 c-268
-41 -343 -54 -464 -85 -248 -62 -512 -163 -744 -283 -64 -33 -118 -57 -121
-54 -9 9 -19 174 -20 334 -1 194 17 265 87 342 l25 27 41 -24 c67 -39 176 -76
215 -73 53 4 50 28 -13 138 l-55 95 37 32 c20 18 44 33 53 33 9 0 35 -14 57
-30z m-156 -52 c42 -56 107 -183 98 -192 -11 -11 -85 9 -190 51 -87 35 -94 42
-80 79 32 83 129 118 172 62z m727 7 c16 -8 44 -32 63 -54 37 -43 125 -212
134 -257 l5 -29 -129 -1 -130 -2 -4 67 c-2 46 -12 83 -30 120 l-26 52 24 24
c15 15 24 36 24 54 0 20 6 31 18 34 9 3 18 5 20 6 2 0 16 -6 31 -14z"/>
<path d="M2593 4603 c-27 -5 -28 -12 -8 -77 8 -26 12 -53 8 -59 -4 -7 0 -8 11
-4 10 4 21 7 26 7 4 0 2 21 -6 47 -18 59 -18 83 0 83 20 0 32 -40 15 -51 -11
-7 -10 -9 3 -9 18 0 33 -33 23 -50 -9 -14 8 -13 23 2 19 19 14 49 -8 55 -16 4
-18 8 -9 19 28 34 -8 51 -78 37z"/>
<path d="M2491 4577 c2 -2 12 -9 22 -16 14 -11 17 -11 17 1 0 7 -10 14 -21 15
-12 1 -20 1 -18 0z"/>
<path d="M2462 4558 c-27 -27 1 -68 48 -68 35 0 46 -15 28 -38 -12 -15 -11
-16 5 -3 20 16 23 51 5 69 -7 7 -26 12 -43 12 -38 0 -49 9 -34 27 14 16 7 17
-9 1z"/>
<path d="M2373 4529 c9 -5 17 -19 17 -30 0 -28 -34 -21 -38 9 -2 14 -10 22
-24 22 -12 0 -18 -5 -15 -12 2 -7 10 -38 17 -69 11 -48 16 -56 32 -51 18 4 18
12 0 60 -3 10 2 13 19 10 19 -2 24 -9 24 -30 -1 -33 6 -35 30 -8 15 16 15 22
5 35 -7 8 -20 15 -28 15 -12 0 -13 3 -4 12 7 7 12 20 12 30 0 14 -8 18 -32 18
-27 -1 -30 -2 -15 -11z"/>
<path d="M2470 4450 c0 -13 18 -22 24 -11 3 5 -1 11 -9 15 -8 3 -15 1 -15 -4z"/>
<path d="M2892 4209 c-22 -8 -52 -33 -52 -42 0 -2 51 -3 113 -3 61 1 126 -2
142 -7 l30 -7 -23 20 c-47 39 -158 60 -210 39z"/>
<path d="M2991 4076 c-36 -39 -43 -186 -16 -357 l7 -46 -48 -7 c-133 -19 -197
-57 -235 -141 -37 -81 -13 -146 76 -204 36 -23 50 -26 130 -26 77 0 98 4 148
27 31 15 57 22 57 17 0 -41 -86 -101 -180 -125 -82 -21 -138 -15 -297 32 -67
20 -129 34 -137 31 -10 -4 -16 -18 -16 -36 0 -24 5 -31 29 -36 17 -3 38 -2 48
3 12 7 45 4 103 -9 47 -10 121 -21 165 -25 97 -8 169 14 249 74 28 21 69 45
91 52 60 19 110 73 130 140 5 16 -5 7 -26 -24 -38 -56 -72 -83 -109 -88 -43
-5 -36 28 19 87 27 29 53 65 57 80 9 36 -11 98 -40 126 l-23 22 31 46 c29 43
31 51 31 141 0 80 -4 102 -22 135 -30 53 -52 78 -98 109 -48 33 -94 34 -124 2z
m102 -12 c72 -37 118 -117 125 -215 2 -36 -1 -81 -7 -100 -12 -37 -56 -97 -64
-89 -3 3 -1 25 5 50 20 89 -25 213 -85 234 -22 8 -31 6 -52 -14 -14 -13 -25
-30 -25 -37 0 -8 -5 -11 -10 -8 -6 4 -8 26 -5 53 17 140 41 165 118 126z m-39
-260 c3 -9 6 -31 6 -50 0 -27 -4 -34 -19 -34 -10 0 -22 7 -25 16 -8 21 -8 69
1 77 11 12 31 7 37 -9z m74 -184 c75 -34 46 -76 -33 -45 -49 18 -60 29 -51 50
7 20 32 18 84 -5z"/>
<path d="M2056 3983 c-36 -12 -69 -37 -120 -87 -39 -38 -75 -68 -79 -67 -5 1
-6 -3 -2 -9 3 -5 -5 -25 -19 -43 -15 -19 -26 -39 -26 -46 0 -7 -4 -9 -10 -6
-6 3 -7 -1 -4 -10 6 -14 14 -10 48 22 68 64 165 135 236 173 24 13 24 12 10
-6 -8 -10 -18 -21 -21 -24 -4 -3 -19 -30 -34 -60 -40 -78 -41 -181 -2 -260 22
-46 96 -138 120 -148 4 -2 33 -15 64 -30 101 -47 225 -34 316 33 45 34 47 37
47 86 0 64 -17 133 -47 187 -13 23 -21 42 -19 42 3 0 -20 26 -52 58 -82 83
-197 131 -315 132 l-42 1 49 25 c27 15 45 29 40 34 -18 18 -89 20 -138 3z
m235 -108 c147 -52 251 -188 266 -348 5 -46 2 -61 -12 -77 -10 -11 -21 -20
-24 -20 -3 0 -4 25 -3 56 8 115 -49 216 -149 267 -89 45 -156 33 -190 -35 -22
-42 -24 -103 -7 -160 18 -59 90 -134 149 -155 27 -10 49 -21 49 -24 0 -11 -83
0 -134 18 -67 24 -148 100 -183 171 -47 97 -34 209 35 299 l26 35 67 -6 c36
-3 86 -13 110 -21z m33 -296 c34 -40 34 -69 2 -69 -29 0 -66 43 -66 76 0 34
32 31 64 -7z"/>
<path d="M3115 3169 c-32 -34 -85 -74 -117 -90 -32 -16 -58 -31 -58 -34 0 -3
23 4 51 14 53 21 112 60 142 95 17 20 50 76 45 76 -2 -1 -30 -28 -63 -61z"/>
<path d="M4735 2963 c-60 -30 -111 -56 -112 -57 -2 -2 8 -133 22 -292 14 -159
28 -330 32 -381 3 -50 9 -96 12 -102 4 -5 47 -19 96 -30 l89 -20 101 63 100
62 -1 125 c-1 68 -5 221 -9 339 l-7 215 -53 58 c-51 56 -92 78 -140 76 -11 0
-69 -25 -130 -56z"/>
<path d="M4079 2871 c-82 -55 -120 -129 -121 -236 -1 -91 22 -161 75 -221 148
-168 384 -71 404 165 10 122 -40 232 -134 291 -40 26 -57 30 -113 30 -57 0
-73 -4 -111 -29z m189 -20 c150 -77 186 -315 64 -433 -58 -57 -182 -78 -182
-31 0 8 -13 38 -30 64 -63 102 -67 235 -13 352 l32 67 46 0 c25 0 62 -8 83
-19z"/>
<path d="M1685 2506 c-52 -13 -120 -45 -168 -78 -34 -24 -28 -37 6 -15 39 26
146 67 221 87 63 16 66 18 31 18 -22 0 -62 -5 -90 -12z"/>
<path d="M3255 2328 c3 -35 13 -115 22 -178 8 -63 17 -144 20 -178 l6 -64 30
6 c16 3 34 6 39 6 5 0 6 4 3 10 -3 5 0 7 9 4 19 -7 148 53 227 107 67 45 166
139 211 200 l27 37 -117 22 c-64 12 -194 37 -289 56 -95 19 -177 34 -184 34
-8 0 -9 -18 -4 -62z"/>
<path d="M1679 2361 c-62 -20 -153 -67 -171 -89 -9 -11 -3 -10 27 3 121 52
167 69 240 85 l80 18 -60 1 c-33 0 -85 -8 -116 -18z"/>
<path d="M1435 2230 c3 -5 8 -10 11 -10 2 0 4 5 4 10 0 6 -5 10 -11 10 -5 0
-7 -4 -4 -10z"/>
<path d="M4940 1555 c0 -8 -4 -15 -8 -15 -5 0 -19 -15 -32 -32 l-23 -33 25 23
c13 12 28 22 33 22 5 0 20 -10 34 -22 l26 -23 -25 28 c-14 16 -24 37 -22 48 2
10 1 19 -2 19 -3 0 -6 -7 -6 -15z"/>
<path d="M4490 1085 l0 -75 45 0 c49 0 46 -5 46 85 0 25 0 50 0 55 -1 6 -21
10 -46 10 l-45 0 0 -75z"/>
<path d="M4620 1086 l0 -76 50 0 51 0 -3 73 -3 72 -47 3 -48 3 0 -75z"/>
<path d="M4744 1146 c-3 -7 -4 -40 -2 -72 l3 -59 48 -3 47 -3 0 75 0 76 -45 0
c-29 0 -48 -5 -51 -14z"/>
<path d="M4490 905 l0 -75 45 0 45 0 0 75 0 75 -45 0 -45 0 0 -75z"/>
<path d="M4620 906 l0 -76 50 0 51 0 -3 73 -3 72 -47 3 -48 3 0 -75z"/>
<path d="M4747 973 c-4 -3 -7 -37 -7 -75 l0 -68 50 0 50 0 0 75 0 75 -43 0
c-24 0 -47 -3 -50 -7z"/>
<path d="M4490 735 l0 -75 45 0 45 0 0 75 0 75 -45 0 -45 0 0 -75z"/>
<path d="M3941 1797 c2 -1 13 -9 24 -17 19 -14 19 -14 6 3 -7 9 -18 17 -24 17
-6 0 -8 -1 -6 -3z"/>
<path d="M2198 1333 c6 -2 18 -2 25 0 6 3 1 5 -13 5 -14 0 -19 -2 -12 -5z"/>
<path d="M3085 1090 c3 -5 8 -10 11 -10 2 0 4 5 4 10 0 6 -5 10 -11 10 -5 0
-7 -4 -4 -10z"/>
</g>
</svg>
